<svg width="28" height="37" viewBox="0 0 28 37" fill="none" xmlns="http://www.w3.org/2000/svg">
<path d="M0.958328 34.625L0.95833 2.37503C0.959352 2.04851 1.04941 1.72846 1.2188 1.44932C1.38819 1.17018 1.6305 0.942519 1.91965 0.790847C2.2088 0.639174 2.53385 0.569232 2.85979 0.588553C3.18574 0.607875 3.50024 0.71572 3.76945 0.900489L27.0611 17.0255C28.0268 17.6938 28.0268 19.3027 27.0611 19.9728L3.76945 36.0978C3.5008 36.2844 3.18614 36.3939 2.85965 36.4142C2.53316 36.4346 2.20734 36.3651 1.91757 36.2133C1.62781 36.0615 1.38519 35.8332 1.21607 35.5532C1.04695 35.2732 0.957811 34.9522 0.958328 34.625Z" fill="#8D6AF7"/>
</svg>
