<svg width="28" height="36" viewBox="0 0 28 36" fill="none" xmlns="http://www.w3.org/2000/svg">
<path d="M26.5417 34.2073L26.5417 34.2081C26.542 34.4438 26.4778 34.6752 26.3559 34.877L26.7839 35.1355L26.3559 34.877C26.2341 35.0788 26.0592 35.2433 25.8504 35.3527C25.6416 35.4621 25.4068 35.5122 25.1715 35.4975C24.9362 35.4828 24.7094 35.4039 24.5158 35.2694L24.5152 35.269L1.22392 19.1443C0.899907 18.9194 0.714599 18.5182 0.714599 18.0807C0.714599 17.6432 0.899886 17.2428 1.22341 17.0189L1.22348 17.0189L24.5135 0.895011C24.5136 0.894935 24.5137 0.894858 24.5138 0.894782C24.708 0.761611 24.9348 0.683886 25.1698 0.669951C25.405 0.656012 25.6395 0.706473 25.8481 0.815905C26.0567 0.925334 26.2315 1.08959 26.3537 1.29098C26.4759 1.49222 26.5408 1.72293 26.5417 1.9583C26.5417 1.95849 26.5417 1.95868 26.5417 1.95887L26.5417 34.2073Z" fill="white" stroke="#8D6AF7"/>
</svg>
