<svg width="10" height="11" viewBox="0 0 10 11" fill="none" xmlns="http://www.w3.org/2000/svg">
<path d="M8.75 2.58329L1.24999 2.58329C1.17406 2.58353 1.09963 2.60447 1.03471 2.64386C0.969796 2.68326 0.916852 2.73961 0.88158 2.80685C0.846307 2.8741 0.830041 2.94969 0.834535 3.02549C0.839028 3.10129 0.864109 3.17443 0.907077 3.23704L4.65708 8.65371C4.81249 8.87829 5.18666 8.87829 5.34249 8.65371L9.0925 3.23704C9.1359 3.17456 9.16136 3.10139 9.16609 3.02546C9.17083 2.94953 9.15467 2.87376 9.11936 2.80637C9.08406 2.73898 9.03096 2.68256 8.96584 2.64323C8.90072 2.6039 8.82607 2.58317 8.75 2.58329Z" fill="white"/>
</svg>
