<svg width="33" height="33" viewBox="0 0 66 66" fill="none" xmlns="http://www.w3.org/2000/svg">
<g filter="url(#filter0_d_2008_2)">
<circle cx="33.0001" cy="19.9999" r="14.9999" fill="#1A202C"/>
</g>
<path d="M33 5C24.7156 5 18 11.7156 18 20C18 28.2844 24.7156 35 33 35C41.2844 35 48 28.2844 48 20C48 11.7156 41.2844 5 33 5ZM36.5531 15.3656H34.2984C34.0312 15.3656 33.7344 15.7172 33.7344 16.1844V17.8125H36.5547L36.1281 20.1344H33.7344V27.1047H31.0734V20.1344H28.6594V17.8125H31.0734V16.4469C31.0734 14.4875 32.4328 12.8953 34.2984 12.8953H36.5531V15.3656Z" fill="#8D6AF7"/>

</svg>
