<svg width="192" height="51" viewBox="0 0 192 51" fill="none" xmlns="http://www.w3.org/2000/svg">
<!-- symbol-->

<g clip-path="url(#clip0_561_96)">
<mask id="mask0_561_96" style="mask-type:luminance" maskUnits="userSpaceOnUse" x="0" y="0" width="192" height="51">
<path d="M192 0H0V51H192V0Z" fill="white"/>
</mask>
<g mask="url(#mask0_561_96)">
<path id="logo" d="M39.9948 0.405266C36.2218 0.491421 32.8166 2.1204 30.3423 4.70695C30.1157 4.94364 29.897 5.1892 29.6867 5.44174C29.4706 5.6992 29.2651 5.96457 29.0683 6.23789C28.8407 6.5528 28.6258 6.87659 28.4232 7.21032C27.3891 8.91158 26.6867 10.8515 26.4085 12.9321C24.3414 12.5855 22.3736 11.6982 20.7135 10.3663C20.0273 9.81768 18.8824 9.16312 17.3169 9.16312C14.2395 9.16312 11.7356 11.7576 11.7356 14.9462C11.7356 18.1349 14.2395 20.7293 17.3169 20.7293C18.8776 20.7293 20.0177 20.0817 20.6991 19.538C22.2617 18.2933 24.0967 17.4397 26.0253 17.0614C25.9288 17.4655 25.8055 17.8586 25.6564 18.2378C25.4738 18.7053 25.2531 19.1529 24.9979 19.5757C23.5061 22.0543 20.8501 23.7041 17.8234 23.7041C13.3345 23.7041 9.66267 20.0758 9.39029 15.4958C9.07108 10.1365 13.5151 5.70315 18.6711 6.2359C20.0063 6.37357 21.2506 6.83404 22.3296 7.54009C23.4086 8.24712 24.3222 9.19876 24.9979 10.3207C25.4079 8.85812 26.0148 7.45691 26.8051 6.15571C27.11 5.65462 27.4398 5.17038 27.7943 4.70695C25.2502 2.04811 21.7227 0.401306 17.8234 0.401306C10.1338 0.401306 3.88734 6.80731 3.78506 14.7501C3.67995 22.9535 10.2256 29.6732 18.1417 29.4912C21.9148 29.405 25.32 27.776 27.7943 25.1895C28.0208 24.9528 28.2397 24.7072 28.4499 24.4547C28.6659 24.1972 28.8714 23.9318 29.0683 23.6585C29.2958 23.3436 29.5107 23.0198 29.7133 22.6861C30.7475 20.9848 31.4499 19.0449 31.7279 16.9644C33.7952 17.311 35.763 18.1982 37.4231 19.5301C38.1092 20.0787 39.2543 20.7333 40.8195 20.7333C43.897 20.7333 46.401 18.1388 46.401 14.9502C46.401 11.7615 43.897 9.16708 40.8195 9.16708C39.2589 9.16708 38.1189 9.81469 37.4375 10.3584C35.8748 11.6031 34.0399 12.4567 32.1113 12.835C32.2079 12.431 32.3311 12.0378 32.4801 11.6586C32.6627 11.1912 32.8833 10.7436 33.1387 10.3207C34.6305 7.84211 37.2864 6.19234 40.3131 6.19234C44.8019 6.19234 48.474 9.82064 48.7463 14.4006C49.0655 19.7599 44.6214 24.1933 39.4655 23.6605C38.1304 23.5228 36.8858 23.0624 35.8069 22.3563C34.728 21.6493 33.8144 20.6977 33.1387 19.5757C32.7286 21.0383 32.1216 22.4395 31.3313 23.7407C31.0264 24.2418 30.6968 24.726 30.3423 25.1895C32.8862 27.8483 36.4138 29.495 40.3131 29.495C48.0026 29.495 54.2492 23.0891 54.3515 15.1462C54.4567 6.94295 47.9109 0.22306 39.9948 0.405266ZM38.0788 11.2219C38.631 10.7812 39.556 10.2564 40.8195 10.2564C43.3169 10.2564 45.3496 12.3616 45.3496 14.9502C45.3496 17.5387 43.3169 19.644 40.8195 19.644C39.5494 19.644 38.6215 19.1132 38.0662 18.6686C36.196 17.1684 34.0474 16.2395 31.8342 15.8791C31.1278 15.7622 30.4148 15.7048 29.7019 15.7048C29.4907 15.7048 29.3024 15.7048 29.0588 15.7048C28.8777 15.7048 28.4798 15.7048 28.3814 15.7048C27.6569 15.7048 26.9399 15.7988 26.2222 15.9187C24.0346 16.2801 21.9119 17.1971 20.0579 18.6746C19.5055 19.1152 18.5804 19.64 17.3169 19.64C14.8196 19.64 12.7869 17.5348 12.7869 14.9462C12.7869 12.3577 14.8196 10.2524 17.3169 10.2524C18.587 10.2524 19.515 10.7832 20.0703 11.2278C21.9406 12.7281 24.089 13.6569 26.3025 14.0174C27.0087 14.1342 27.7012 14.2168 28.4141 14.2168C28.6253 14.2168 28.9298 14.2168 29.0588 14.2168C29.1451 14.2168 29.6053 14.2168 29.7036 14.2168C30.428 14.2168 31.1966 14.0976 31.9144 13.9778C34.1021 13.6163 36.2247 12.6993 38.0788 11.2219Z" fill="url(#paint0_linear_561_96)"/>
</g>
</g>
<defs>
<linearGradient id="paint0_linear_561_96" x1="13.5333" y1="31.0449" x2="45.7062" y2="-0.00555274" gradientUnits="userSpaceOnUse">
<stop stop-color="#0190F9"/>
<stop offset="0.09" stop-color="#008AEF"/>
<stop offset="0.23" stop-color="#007CD6"/>
<stop offset="0.41" stop-color="#0064AD"/>
<stop offset="0.63" stop-color="#004374"/>
<stop offset="0.86" stop-color="#00192C"/>
<stop offset="1"/>
</linearGradient>
<clipPath id="clip0_561_96">
<rect width="192" height="51" fill="white"/>
</clipPath>
</defs>
<!--upperText-->
<g clip-path="url(#clip0_561_96)">
<mask id="mask0_561_96" style="mask-type:luminance" maskUnits="userSpaceOnUse" x="0" y="0" width="192" height="51">
<path d="M192 0H0V51H192V0Z" fill="white"/>
</mask>
<g mask="url(#mask0_561_96)" id="upperText">
<path d="M60.0874 29.2277C59.7894 29.2277 59.5727 29.1446 59.383 28.9506C59.1933 28.7567 59.1119 28.5073 59.1119 28.2302V1.7675C59.1119 1.4627 59.1933 1.21331 59.383 1.04706C59.5727 0.853088 59.7894 0.769958 60.0874 0.769958H64.2323C64.6659 0.769958 64.9909 0.880798 65.1806 1.07477C65.3703 1.26873 65.5055 1.43499 65.56 1.54583L75.0691 17.2018V1.7675C75.0691 1.4627 75.1502 1.21331 75.3399 1.04706C75.5297 0.853088 75.7463 0.769958 76.0443 0.769958H80.7311C81.0292 0.769958 81.2458 0.853088 81.4355 1.04706C81.6252 1.24102 81.7066 1.49041 81.7066 1.7675V28.2302C81.7066 28.5073 81.6252 28.7289 81.4355 28.9506C81.2458 29.1446 81.0292 29.2554 80.7311 29.2554H76.559C76.1527 29.2554 75.8277 29.1446 75.638 28.9229C75.4483 28.7012 75.3127 28.5627 75.2586 28.4796L65.7494 13.4332V28.2579C65.7494 28.5627 65.6683 28.8121 65.4786 28.9783C65.2889 29.1723 65.0722 29.2554 64.7742 29.2554H60.0874V29.2277Z" fill="black"/>
<path d="M88.1272 29.2277C87.8291 29.2277 87.6125 29.1446 87.4228 28.9506C87.2331 28.7567 87.152 28.5073 87.152 28.2302V1.7675C87.152 1.4627 87.2331 1.21331 87.4228 1.04706C87.6125 0.853088 87.8291 0.769958 88.1272 0.769958H92.2724C92.7057 0.769958 93.0309 0.880798 93.2203 1.07477C93.41 1.26873 93.5456 1.43499 93.5997 1.54583L103.109 17.2018V1.7675C103.109 1.4627 103.19 1.21331 103.38 1.04706C103.569 0.853088 103.786 0.769958 104.084 0.769958H108.771C109.069 0.769958 109.286 0.853088 109.476 1.04706C109.665 1.24102 109.746 1.49041 109.746 1.7675V28.2302C109.746 28.5073 109.665 28.7289 109.476 28.9506C109.286 29.1723 109.069 29.2554 108.771 29.2554H104.599C104.193 29.2554 103.867 29.1446 103.678 28.9229C103.488 28.7012 103.353 28.5627 103.299 28.4796L93.7895 13.4332V28.2579C93.7895 28.5627 93.7081 28.8121 93.5184 28.9783C93.3289 29.1723 93.112 29.2554 92.814 29.2554H88.1272V29.2277Z" fill="black"/>
<path d="M116.167 29.2277C115.869 29.2277 115.653 29.1446 115.463 28.9506C115.273 28.7567 115.192 28.5073 115.192 28.2302V1.7675C115.192 1.4627 115.273 1.21331 115.463 1.04706C115.653 0.853088 115.869 0.769958 116.167 0.769958H134.373C134.671 0.769958 134.887 0.853088 135.077 1.04706C135.267 1.24102 135.348 1.49041 135.348 1.7675V5.59144C135.348 5.89624 135.267 6.14564 135.077 6.31189C134.887 6.50586 134.671 6.58899 134.373 6.58899H121.938V12.0755H133.533C133.831 12.0755 134.048 12.1863 134.237 12.3803C134.427 12.5742 134.508 12.8236 134.508 13.1284V16.6753C134.508 16.9524 134.427 17.174 134.237 17.3957C134.048 17.5897 133.831 17.7005 133.533 17.7005H121.938V23.3533H134.698C134.996 23.3533 135.212 23.4364 135.402 23.6304C135.592 23.8243 135.673 24.0737 135.673 24.3508V28.1748C135.673 28.4796 135.592 28.7289 135.402 28.8952C135.212 29.0892 134.996 29.1723 134.698 29.1723H116.167V29.2277Z" fill="black"/>
<path d="M151.088 29.6433C148.623 29.6433 146.51 29.2277 144.749 28.3687C142.988 27.5374 141.633 26.2905 140.658 24.6556C139.683 23.0208 139.141 20.998 139.032 18.5872V11.355C139.141 8.99972 139.683 7.00462 140.658 5.34205C141.633 3.70718 143.015 2.46024 144.803 1.60124C146.564 0.742243 148.677 0.326599 151.088 0.326599C153.499 0.326599 154.394 0.548276 155.856 0.99163C157.319 1.43498 158.593 2.10001 159.676 2.959C160.76 3.818 161.627 4.84328 162.223 6.0625C162.846 7.28172 163.144 8.63949 163.171 10.1635C163.171 10.4129 163.117 10.6069 162.954 10.7731C162.792 10.9394 162.575 11.0225 162.358 11.0225H157.103C156.777 11.0225 156.507 10.9394 156.317 10.8008C156.127 10.6623 155.992 10.3852 155.856 9.96954C155.504 8.52864 154.908 7.55879 154.068 7.03232C153.256 6.50585 152.253 6.22875 151.034 6.22875C149.815 6.22875 148.46 6.6444 147.648 7.47567C146.808 8.30697 146.347 9.69244 146.293 11.6044C146.212 13.8212 146.212 16.1211 146.293 18.4487C146.374 20.3883 146.835 21.7461 147.648 22.5774C148.487 23.4087 149.598 23.8243 151.034 23.8243C152.47 23.8243 153.256 23.5472 154.068 23.0208C154.908 22.4666 155.477 21.4967 155.829 20.0835C155.938 19.6679 156.073 19.3908 156.29 19.2523C156.479 19.1137 156.751 19.0306 157.103 19.0306H162.358C162.602 19.0306 162.792 19.1137 162.954 19.28C163.117 19.4462 163.198 19.6402 163.171 19.8896C163.171 21.4136 162.819 22.7714 162.223 23.9906C161.6 25.2098 160.76 26.2351 159.676 27.0941C158.593 27.9531 157.319 28.5904 155.856 29.0337C154.394 29.4771 152.822 29.6987 151.088 29.6987V29.6433Z" fill="black"/>
<path d="M174.252 29.2277C173.954 29.2277 173.737 29.1446 173.547 28.9506C173.358 28.7567 173.276 28.5073 173.276 28.2302V7.14316H166.341C166.043 7.14316 165.826 7.03233 165.636 6.83836C165.447 6.64438 165.366 6.39501 165.366 6.11791V1.7675C165.366 1.4627 165.447 1.21331 165.636 1.04706C165.826 0.853088 166.043 0.769958 166.341 0.769958H187.337C187.635 0.769958 187.852 0.853088 188.041 1.04706C188.231 1.24102 188.312 1.49041 188.312 1.7675V6.11791C188.312 6.39501 188.231 6.61668 188.041 6.83836C187.852 7.03233 187.635 7.14316 187.337 7.14316H180.401V28.2302C180.401 28.535 180.32 28.7844 180.13 28.9506C179.941 29.1446 179.724 29.2277 179.426 29.2277H174.252Z" fill="black"/>
</g>
</g>
<defs>
<clipPath id="clip0_561_96">
<rect width="192" height="51" fill="white"/>
</clipPath>
</defs>
<!--loverText-->
<g clip-path="url(#clip0_561_96)">
<mask id="mask0_561_96" style="mask-type:luminance" maskUnits="userSpaceOnUse" x="0" y="0" width="192" height="51">
<path d="M192 0H0V51H192V0Z" fill="white"/>
</mask>
<g mask="url(#mask0_561_96)" id="loverText">
<path d="M24.4296 40.3686V39.4257H33.1914V40.3686H29.362V50.9218H28.2587V40.3686H24.4296Z" fill="#191919"/>
<path d="M35.675 50.9218V39.4257H42.6845V40.3686H36.7786V44.6965H42.3128V45.6397H36.7786V49.9789H42.8025V50.9218H35.675Z" fill="#191919"/>
<path d="M45.5401 50.9218V39.4257H46.6434V49.9789H52.4019V50.9218H45.5401Z" fill="#191919"/>
<path d="M54.8859 50.9218V39.4257H61.8954V40.3686H55.9892V44.6965H61.5234V45.6397H55.9892V49.9789H62.0131V50.9218H54.8859Z" fill="#191919"/>
<path d="M74.2146 43.0182H73.1053C73.0228 42.6252 72.8734 42.2623 72.6571 41.9291C72.4445 41.5923 72.1771 41.2986 71.8547 41.048C71.532 40.7971 71.1664 40.6025 70.7571 40.4641C70.3482 40.3255 69.9055 40.2563 69.4298 40.2563C68.6666 40.2563 67.9703 40.4454 67.341 40.8235C66.7157 41.2013 66.2142 41.757 65.8365 42.4906C65.4628 43.2202 65.276 44.1147 65.276 45.1737C65.276 46.2403 65.4628 47.1384 65.8365 47.8682C66.2142 48.5977 66.7157 49.1517 67.341 49.5298C67.9703 49.9038 68.6666 50.0911 69.4298 50.0911C69.9055 50.0911 70.3482 50.0216 70.7571 49.8833C71.1664 49.745 71.532 49.5521 71.8547 49.305C72.1771 49.0544 72.4445 48.7607 72.6571 48.4239C72.8734 48.0872 73.0228 47.7222 73.1053 47.3292H74.2146C74.1163 47.8568 73.9315 48.3489 73.6601 48.8056C73.3924 49.2584 73.0503 49.655 72.6333 49.9956C72.2204 50.3361 71.7444 50.6017 71.2056 50.7928C70.6666 50.9836 70.0748 51.0789 69.4298 51.0789C68.4148 51.0789 67.5141 50.8376 66.7274 50.3549C65.9408 49.8683 65.3233 49.1837 64.8748 48.3002C64.4303 47.4171 64.2079 46.3748 64.2079 45.1737C64.2079 43.9726 64.4303 42.9303 64.8748 42.0472C65.3233 41.1638 65.9408 40.4808 66.7274 39.9981C67.5141 39.5118 68.4148 39.2686 69.4298 39.2686C70.0748 39.2686 70.6666 39.3638 71.2056 39.5546C71.7444 39.7419 72.2204 40.0075 72.6333 40.3519C73.0503 40.6925 73.3924 41.089 73.6601 41.5419C73.9315 41.9947 74.1163 42.4868 74.2146 43.0182Z" fill="#191919"/>
<path d="M86.7127 45.1737C86.7127 46.3713 86.4883 47.4133 86.0398 48.3002C85.5916 49.1837 84.974 49.8683 84.1874 50.3549C83.4045 50.8376 82.5038 51.0789 81.4851 51.0789C80.4663 51.0789 79.5637 50.8376 78.777 50.3549C77.9941 49.8683 77.3786 49.1837 76.9301 48.3002C76.4856 47.4133 76.2635 46.3713 76.2635 45.1737C76.2635 43.9761 76.4856 42.9359 76.9301 42.0527C77.3786 41.1658 77.9961 40.4808 78.7828 39.9981C79.5694 39.5118 80.4704 39.2686 81.4851 39.2686C82.5038 39.2686 83.4045 39.5118 84.1874 39.9981C84.974 40.4808 85.5916 41.1658 86.0398 42.0527C86.4883 42.9359 86.7127 43.9761 86.7127 45.1737ZM85.6386 45.1737C85.6386 44.1446 85.4578 43.2633 85.0958 42.5299C84.7339 41.7925 84.2404 41.2294 83.6149 40.8402C82.9896 40.4509 82.2795 40.2563 81.4851 40.2563C80.6945 40.2563 79.9864 40.4509 79.3611 40.8402C78.7355 41.2294 78.24 41.7907 77.8741 42.5241C77.5124 43.2577 77.3313 44.1408 77.3313 45.1737C77.3313 46.2028 77.5124 47.0842 77.8741 47.8175C78.236 48.5511 78.7297 49.1142 79.355 49.5072C79.9806 49.8965 80.6904 50.0911 81.4851 50.0911C82.2795 50.0911 82.9896 49.8965 83.6149 49.5072C84.2445 49.118 84.7399 48.5567 85.1019 47.8231C85.4638 47.0859 85.6426 46.2028 85.6386 45.1737Z" fill="#191919"/>
<path d="M89.3809 39.4257H90.6552L95.0391 49.4398H95.1452L99.5291 39.4257H100.803V50.9218H99.7649V41.643H99.6706L95.5936 50.9218H94.5906L90.5137 41.643H90.4194V50.9218H89.3809V39.4257Z" fill="#191919"/>
<path d="M108.689 50.9218V39.4257H115.698V40.3686H109.792V44.6965H115.327V45.6397H109.792V49.9789H115.816V50.9218H108.689Z" fill="#191919"/>
<path d="M118.743 39.4257L122.088 44.416H122.165L125.51 39.4257H126.814L122.926 45.1737L126.814 50.9218H125.51L122.165 45.9877H122.088L118.743 50.9218H117.439L121.386 45.1737L117.439 39.4257H118.743Z" fill="#191919"/>
<path d="M128.906 50.9218V39.4257H132.806C133.663 39.4257 134.379 39.5828 134.953 39.8973C135.531 40.2077 135.966 40.6306 136.257 41.1658C136.552 41.701 136.7 42.3034 136.7 42.9734C136.7 43.6431 136.554 44.2475 136.263 44.7865C135.972 45.3214 135.539 45.7461 134.965 46.0606C134.391 46.3713 133.677 46.5264 132.823 46.5264H129.755V45.5835H132.794C133.427 45.5835 133.952 45.4712 134.369 45.2467C134.786 45.0184 135.097 44.7077 135.301 44.3149C135.51 43.9219 135.614 43.4746 135.614 42.9734C135.614 42.4719 135.51 42.0246 135.301 41.6316C135.097 41.2388 134.784 40.9299 134.363 40.7053C133.946 40.4808 133.417 40.3686 132.776 40.3686H130.009V50.9218H128.906Z" fill="#191919"/>
<path d="M139.29 50.9218V39.4257H146.299V40.3686H140.393V44.6965H145.927V45.6397H140.393V49.9789H146.417V50.9218H139.29Z" fill="#191919"/>
<path d="M149.155 50.9218V39.4257H153.055C153.912 39.4257 154.628 39.5734 155.202 39.8691C155.781 40.1611 156.215 40.567 156.506 41.0873C156.801 41.6037 156.949 42.1967 156.949 42.8667C156.949 43.5364 156.801 44.1276 156.506 44.6406C156.215 45.1532 155.783 45.5536 155.208 45.8417C154.634 46.1298 153.922 46.274 153.072 46.274H149.751V45.3141H153.043C153.672 45.3141 154.196 45.2147 154.612 45.0166C155.033 44.8182 155.346 44.5356 155.55 44.169C155.759 43.8023 155.863 43.3682 155.863 42.8667C155.863 42.3652 155.759 41.9273 155.55 41.553C155.342 41.1752 155.027 40.8833 154.606 40.6775C154.189 40.4715 153.662 40.3686 153.025 40.3686H150.258V50.9218H149.155ZM154.483 45.735L157.456 50.9218H156.182L153.238 45.735H154.483Z" fill="#191919"/>
<path d="M158.905 40.3686V39.4257H167.666V40.3686H163.837V50.9218H162.734V40.3686H158.905Z" fill="#191919"/>
</g>
</g>
<defs>
<clipPath id="clip0_561_96">
<rect width="192" height="51" fill="white"/>
</clipPath>
</defs>
</svg>
