<svg width="12" height="12" viewBox="0 0 12 12" fill="none" xmlns="http://www.w3.org/2000/svg">
<path d="M2.50001 1.49998L2.50001 10.5C2.50029 10.5911 2.52543 10.6804 2.5727 10.7583C2.61997 10.8362 2.68759 10.8998 2.76828 10.9421C2.84898 10.9844 2.93969 11.0039 3.03065 10.9985C3.12161 10.9931 3.20938 10.963 3.28451 10.9115L9.78451 6.41148C10.054 6.22498 10.054 5.77598 9.78451 5.58898L3.28451 1.08898C3.20954 1.03689 3.12172 1.00635 3.03061 1.00066C2.9395 0.994979 2.84857 1.01437 2.76771 1.05674C2.68684 1.0991 2.61913 1.16282 2.57194 1.24096C2.52474 1.31911 2.49987 1.40869 2.50001 1.49998Z" fill="#A8C7FF"/>
</svg>
