<svg width="196" height="51" viewBox="0 0 196 51" fill="none" xmlns="http://www.w3.org/2000/svg">
<g clip-path="url(#clip0_570_2607)">
<mask id="mask0_570_2607" style="mask-type:luminance" maskUnits="userSpaceOnUse" x="0" y="0" width="196" height="51">
<path d="M196 0H0V51H196V0Z" fill="white"/>
</mask>
<g mask="url(#mask0_570_2607)">
<path d="M40.828 0.405205C36.9764 0.49136 33.5002 2.12033 30.9744 4.70689C30.743 4.94357 30.5198 5.18914 30.3051 5.44167C30.0845 5.69914 29.8748 5.96451 29.6738 6.23783C29.4415 6.55274 29.2221 6.87653 29.0153 7.21026C27.9597 8.91152 27.2426 10.8515 26.9587 12.932C24.8484 12.5854 22.8396 11.6981 21.145 10.3662C20.4445 9.81762 19.2757 9.16306 17.6776 9.16306C14.5361 9.16306 11.98 11.7575 11.98 14.9462C11.98 18.1348 14.5361 20.7293 17.6776 20.7293C19.2708 20.7293 20.4347 20.0816 21.1303 19.538C22.7255 18.2932 24.5987 17.4396 26.5675 17.0613C26.4689 17.4654 26.3431 17.8585 26.1909 18.2378C26.0045 18.7052 25.7792 19.1528 25.5187 19.5756C23.9957 22.0542 21.2845 23.704 18.1947 23.704C13.6123 23.704 9.86394 20.0757 9.58589 15.4958C9.26003 10.1365 13.7966 5.70309 19.0601 6.23584C20.423 6.37351 21.6933 6.83397 22.7948 7.54003C23.8962 8.24706 24.8289 9.1987 25.5187 10.3207C25.9372 8.85806 26.5567 7.45685 27.3636 6.15564C27.6748 5.65456 28.0114 5.17032 28.3733 4.70689C25.7762 2.04805 22.1752 0.401245 18.1947 0.401245C10.3449 0.401245 3.96829 6.80724 3.86388 14.7501C3.75658 22.9534 10.4386 29.6731 18.5196 29.4911C22.3713 29.405 25.8475 27.7759 28.3733 25.1894C28.6046 24.9527 28.828 24.7072 29.0426 24.4546C29.2631 24.1972 29.4728 23.9318 29.6738 23.6585C29.9061 23.3436 30.1255 23.0197 30.3323 22.686C31.3881 20.9848 32.1051 19.0448 32.3888 16.9643C34.4992 17.3109 36.5081 18.1982 38.2027 19.5301C38.9031 20.0787 40.072 20.7332 41.6699 20.7332C44.8114 20.7332 47.3676 18.1388 47.3676 14.9501C47.3676 11.7615 44.8114 9.16702 41.6699 9.16702C40.0767 9.16702 38.913 9.81463 38.2174 10.3583C36.6222 11.6031 34.749 12.4567 32.7803 12.8349C32.8788 12.4309 33.0046 12.0378 33.1568 11.6585C33.3431 11.1911 33.5684 10.7435 33.829 10.3207C35.352 7.84204 38.0632 6.19228 41.153 6.19228C45.7353 6.19228 49.4839 9.82058 49.7618 14.4005C50.0877 19.7598 45.551 24.1932 40.2877 23.6605C38.9247 23.5228 37.6542 23.0623 36.5528 22.3563C35.4514 21.6492 34.5188 20.6976 33.829 19.5756C33.4104 21.0382 32.7908 22.4394 31.984 23.7407C31.6727 24.2417 31.3363 24.726 30.9744 25.1894C33.5713 27.8483 37.1724 29.4949 41.153 29.4949C49.0026 29.4949 55.3794 23.0891 55.4838 15.1462C55.5912 6.94289 48.909 0.222999 40.828 0.405205ZM38.8721 11.2218C39.4358 10.7811 40.3801 10.2563 41.6699 10.2563C44.2193 10.2563 46.2943 12.3616 46.2943 14.9501C46.2943 17.5387 44.2193 19.6439 41.6699 19.6439C40.3734 19.6439 39.4261 19.1132 38.8592 18.6686C36.9501 17.1683 34.7566 16.2394 32.4974 15.879C31.7763 15.7621 31.0484 15.7047 30.3206 15.7047C30.105 15.7047 29.9128 15.7047 29.6642 15.7047C29.4793 15.7047 29.0731 15.7047 28.9726 15.7047C28.2331 15.7047 27.5011 15.7988 26.7684 15.9186C24.5352 16.2801 22.3684 17.197 20.4757 18.6745C19.9118 19.1152 18.9674 19.64 17.6776 19.64C15.1284 19.64 13.0532 17.5347 13.0532 14.9462C13.0532 12.3576 15.1284 10.2524 17.6776 10.2524C18.9742 10.2524 19.9216 10.7831 20.4884 11.2277C22.3977 12.728 24.5909 13.6568 26.8504 14.0173C27.5714 14.1342 28.2782 14.2168 29.006 14.2168C29.2216 14.2168 29.5325 14.2168 29.6642 14.2168C29.7522 14.2168 30.222 14.2168 30.3224 14.2168C31.0619 14.2168 31.8465 14.0975 32.5793 13.9777C34.8125 13.6162 36.9793 12.6993 38.8721 11.2218Z" fill="white"/>
<path d="M61.3392 29.2276C61.035 29.2276 60.8138 29.1445 60.6202 28.9505C60.4265 28.7566 60.3434 28.5072 60.3434 28.2301V1.76744C60.3434 1.46264 60.4265 1.21325 60.6202 1.04699C60.8138 0.853027 61.035 0.769897 61.3392 0.769897H65.5705C66.0131 0.769897 66.3448 0.880737 66.5385 1.0747C66.7322 1.26867 66.8702 1.43493 66.9258 1.54577L76.6331 17.2017V1.76744C76.6331 1.46264 76.7159 1.21325 76.9095 1.04699C77.1032 0.853027 77.3244 0.769897 77.6286 0.769897H82.413C82.7173 0.769897 82.9384 0.853027 83.1321 1.04699C83.3258 1.24096 83.4088 1.49035 83.4088 1.76744V28.2301C83.4088 28.5072 83.3258 28.7289 83.1321 28.9505C82.9384 29.1445 82.7173 29.2554 82.413 29.2554H78.154C77.7392 29.2554 77.4074 29.1445 77.2138 28.9228C77.0201 28.7012 76.8817 28.5626 76.8265 28.4795L67.1192 13.4332V28.2578C67.1192 28.5626 67.0364 28.812 66.8427 28.9783C66.6491 29.1722 66.4279 29.2554 66.1237 29.2554H61.3392V29.2276Z" fill="white"/>
<path d="M89.9631 29.2276C89.6589 29.2276 89.4377 29.1445 89.244 28.9505C89.0504 28.7566 88.9676 28.5072 88.9676 28.2301V1.76744C88.9676 1.46264 89.0504 1.21325 89.244 1.04699C89.4377 0.853027 89.6589 0.769897 89.9631 0.769897H94.1947C94.637 0.769897 94.969 0.880737 95.1624 1.0747C95.356 1.26867 95.4944 1.43493 95.5497 1.54577L105.257 17.2017V1.76744C105.257 1.46264 105.34 1.21325 105.533 1.04699C105.727 0.853027 105.949 0.769897 106.252 0.769897H111.037C111.341 0.769897 111.563 0.853027 111.756 1.04699C111.95 1.24096 112.033 1.49035 112.033 1.76744V28.2301C112.033 28.5072 111.95 28.7289 111.756 28.9505C111.563 29.1723 111.341 29.2554 111.037 29.2554H106.778C106.363 29.2554 106.031 29.1445 105.838 28.9228C105.644 28.7012 105.506 28.5626 105.451 28.4795L95.7433 13.4332V28.2578C95.7433 28.5626 95.6603 28.812 95.4666 28.9783C95.2732 29.1722 95.0518 29.2554 94.7475 29.2554H89.9631V29.2276Z" fill="white"/>
<path d="M118.587 29.2276C118.283 29.2276 118.062 29.1445 117.868 28.9506C117.675 28.7566 117.591 28.5072 117.591 28.2301V1.76744C117.591 1.46264 117.675 1.21325 117.868 1.04699C118.062 0.853027 118.283 0.769897 118.587 0.769897H137.172C137.476 0.769897 137.698 0.853027 137.891 1.04699C138.085 1.24096 138.168 1.49035 138.168 1.76744V5.59138C138.168 5.89617 138.085 6.14558 137.891 6.31182C137.698 6.5058 137.476 6.58892 137.172 6.58892H124.478V12.0754H136.315C136.619 12.0754 136.84 12.1863 137.034 12.3802C137.227 12.5742 137.31 12.8236 137.31 13.1284V16.6752C137.31 16.9523 137.227 17.174 137.034 17.3956C136.84 17.5896 136.619 17.7005 136.315 17.7005H124.478V23.3532H137.504C137.808 23.3532 138.029 23.4364 138.223 23.6303C138.417 23.8243 138.5 24.0737 138.5 24.3508V28.1747C138.5 28.4795 138.417 28.7289 138.223 28.8952C138.029 29.0891 137.808 29.1723 137.504 29.1723H118.587V29.2276Z" fill="white"/>
<path d="M154.236 29.6433C151.719 29.6433 149.562 29.2277 147.764 28.3687C145.967 27.5374 144.584 26.2904 143.588 24.6556C142.593 23.0207 142.039 20.9979 141.929 18.5872V11.3549C142.039 8.99966 142.593 7.00456 143.588 5.34199C144.584 3.70712 145.994 2.46018 147.82 1.60118C149.617 0.742182 151.774 0.326538 154.236 0.326538C156.697 0.326538 157.61 0.548215 159.103 0.991569C160.597 1.43492 161.897 2.09995 163.003 2.95894C164.109 3.81794 164.994 4.84321 165.602 6.06244C166.239 7.28166 166.543 8.63943 166.57 10.1635C166.57 10.4128 166.515 10.6068 166.349 10.773C166.183 10.9393 165.962 11.0225 165.741 11.0225H160.376C160.044 11.0225 159.767 10.9393 159.574 10.8008C159.38 10.6622 159.242 10.3851 159.103 9.96948C158.744 8.52858 158.135 7.55873 157.278 7.03226C156.448 6.50579 155.425 6.22869 154.181 6.22869C152.936 6.22869 151.553 6.64434 150.724 7.47561C149.866 8.30691 149.396 9.69238 149.341 11.6043C149.258 13.8211 149.258 16.121 149.341 18.4486C149.424 20.3883 149.894 21.7461 150.724 22.5774C151.581 23.4086 152.715 23.8243 154.181 23.8243C155.646 23.8243 156.448 23.5472 157.278 23.0207C158.135 22.4665 158.716 21.4967 159.076 20.0835C159.186 19.6678 159.325 19.3907 159.546 19.2522C159.739 19.1137 160.016 19.0305 160.376 19.0305H165.741C165.99 19.0305 166.183 19.1137 166.349 19.2799C166.515 19.4462 166.598 19.6401 166.57 19.8895C166.57 21.4136 166.211 22.7713 165.602 23.9905C164.966 25.2098 164.109 26.235 163.003 27.094C161.897 27.953 160.597 28.5903 159.103 29.0337C157.61 29.4771 156.006 29.6986 154.236 29.6986V29.6433Z" fill="white"/>
<path d="M177.882 29.2276C177.578 29.2276 177.356 29.1445 177.163 28.9506C176.969 28.7566 176.886 28.5072 176.886 28.2301V7.1431H169.806C169.502 7.1431 169.281 7.03227 169.087 6.8383C168.894 6.64432 168.811 6.39495 168.811 6.11785V1.76744C168.811 1.46264 168.894 1.21325 169.087 1.04699C169.281 0.853027 169.502 0.769897 169.806 0.769897H191.24C191.544 0.769897 191.765 0.853027 191.959 1.04699C192.152 1.24096 192.235 1.49035 192.235 1.76744V6.11785C192.235 6.39495 192.152 6.61662 191.959 6.8383C191.765 7.03227 191.544 7.1431 191.24 7.1431H184.16V28.2301C184.16 28.5349 184.077 28.7843 183.883 28.9506C183.69 29.1445 183.468 29.2276 183.164 29.2276H177.882Z" fill="white"/>
<path d="M24.9385 40.3684V39.4255H33.8828V40.3684H29.9736V50.9216H28.8474V40.3684H24.9385Z" fill="white"/>
<path d="M36.4183 50.9216V39.4255H43.5737V40.3684H37.5448V44.6964H43.1943V45.6396H37.5448V49.9787H43.6943V50.9216H36.4183Z" fill="white"/>
<path d="M46.4888 50.9216V39.4255H47.6151V49.9787H53.4936V50.9216H46.4888Z" fill="white"/>
<path d="M56.0294 50.9216V39.4255H63.1848V40.3684H57.1556V44.6964H62.8051V45.6396H57.1556V49.9787H63.305V50.9216H56.0294Z" fill="white"/>
<path d="M75.7607 43.0181H74.6283C74.544 42.6251 74.3916 42.2622 74.1708 41.9289C73.9537 41.5922 73.6808 41.2985 73.3517 41.0479C73.0223 40.797 72.649 40.6023 72.2312 40.464C71.8138 40.3254 71.3618 40.2562 70.8762 40.2562C70.0972 40.2562 69.3863 40.4452 68.7439 40.8233C68.1056 41.2012 67.5936 41.7569 67.2081 42.4905C66.8266 43.2201 66.6359 44.1146 66.6359 45.1736C66.6359 46.2402 66.8266 47.1383 67.2081 47.8681C67.5936 48.5976 68.1056 49.1516 68.7439 49.5297C69.3863 49.9037 70.0972 50.091 70.8762 50.091C71.3618 50.091 71.8138 50.0215 72.2312 49.8832C72.649 49.7448 73.0223 49.552 73.3517 49.3049C73.6808 49.0543 73.9537 48.7606 74.1708 48.4238C74.3916 48.087 74.544 47.7221 74.6283 47.3291H75.7607C75.6604 47.8567 75.4717 48.3488 75.1946 48.8054C74.9214 49.2583 74.5721 49.6548 74.1465 49.9954C73.7249 50.336 73.239 50.6016 72.6891 50.7927C72.1388 50.9835 71.5347 51.0787 70.8762 51.0787C69.84 51.0787 68.9206 50.8375 68.1176 50.3548C67.3146 49.8682 66.6841 49.1835 66.2263 48.3001C65.7726 47.417 65.5456 46.3747 65.5456 45.1736C65.5456 43.9724 65.7726 42.9302 66.2263 42.0471C66.6841 41.1636 67.3146 40.4807 68.1176 39.998C68.9206 39.5117 69.84 39.2684 70.8762 39.2684C71.5347 39.2684 72.1388 39.3637 72.6891 39.5545C73.239 39.7418 73.7249 40.0073 74.1465 40.3517C74.5721 40.6923 74.9214 41.0889 75.1946 41.5417C75.4717 41.9946 75.6604 42.4867 75.7607 43.0181Z" fill="white"/>
<path d="M88.5191 45.1736C88.5191 46.3712 88.2901 47.4132 87.8323 48.3001C87.3747 49.1835 86.7443 49.8682 85.9413 50.3548C85.1421 50.8375 84.2227 51.0787 83.1827 51.0787C82.1427 51.0787 81.2212 50.8375 80.4182 50.3548C79.619 49.8682 78.9906 49.1835 78.5328 48.3001C78.0791 47.4132 77.8524 46.3712 77.8524 45.1736C77.8524 43.976 78.0791 42.9357 78.5328 42.0526C78.9906 41.1657 79.621 40.4807 80.4241 39.998C81.2271 39.5117 82.1468 39.2684 83.1827 39.2684C84.2227 39.2684 85.1421 39.5117 85.9413 39.998C86.7443 40.4807 87.3747 41.1657 87.8323 42.0526C88.2901 42.9357 88.5191 43.976 88.5191 45.1736ZM87.4227 45.1736C87.4227 44.1445 87.2381 43.2631 86.8687 42.5298C86.4992 41.7923 85.9954 41.2293 85.3568 40.8401C84.7185 40.4508 83.9936 40.2562 83.1827 40.2562C82.3756 40.2562 81.6527 40.4508 81.0144 40.8401C80.3758 41.2293 79.87 41.7906 79.4964 42.5239C79.1272 43.2576 78.9424 44.1407 78.9424 45.1736C78.9424 46.2027 79.1272 47.084 79.4964 47.8174C79.8659 48.551 80.3699 49.1141 81.0082 49.5071C81.6469 49.8964 82.3715 50.091 83.1827 50.091C83.9936 50.091 84.7185 49.8964 85.3568 49.5071C85.9995 49.1179 86.5053 48.5566 86.8748 47.8229C87.2443 47.0858 87.4268 46.2027 87.4227 45.1736Z" fill="white"/>
<path d="M91.243 39.4255H92.5439L97.0191 49.4397H97.1274L101.603 39.4255H102.904V50.9216H101.843V41.6429H101.747L97.5852 50.9216H96.5613L92.3994 41.6429H92.3031V50.9216H91.243V39.4255Z" fill="white"/>
<path d="M110.953 50.9216V39.4255H118.109V40.3684H112.08V44.6964H117.729V45.6396H112.08V49.9787H118.229V50.9216H110.953Z" fill="white"/>
<path d="M121.217 39.4255L124.632 44.4159H124.71L128.125 39.4255H129.456L125.487 45.1736L129.456 50.9216H128.125L124.71 45.9875H124.632L121.217 50.9216H119.885L123.915 45.1736L119.885 39.4255H121.217Z" fill="white"/>
<path d="M131.591 50.9216V39.4255H135.572C136.448 39.4255 137.179 39.5826 137.765 39.8971C138.355 40.2075 138.799 40.6305 139.096 41.1657C139.397 41.7009 139.548 42.3032 139.548 42.9733C139.548 43.643 139.399 44.2474 139.102 44.7864C138.805 45.3213 138.363 45.746 137.777 46.0605C137.191 46.3712 136.462 46.5263 135.59 46.5263H132.459V45.5833H135.56C136.207 45.5833 136.743 45.4711 137.168 45.2466C137.594 45.0182 137.911 44.7076 138.12 44.3148C138.333 43.9217 138.439 43.4745 138.439 42.9733C138.439 42.4718 138.333 42.0245 138.12 41.6314C137.911 41.2387 137.592 40.9297 137.163 40.7052C136.737 40.4807 136.197 40.3684 135.542 40.3684H132.717V50.9216H131.591Z" fill="white"/>
<path d="M142.192 50.9216V39.4255H149.347V40.3684H143.318V44.6964H148.968V45.6396H143.318V49.9787H149.468V50.9216H142.192Z" fill="white"/>
<path d="M152.262 50.9216V39.4255H156.243C157.119 39.4255 157.85 39.5733 158.436 39.869C159.026 40.1609 159.47 40.5669 159.767 41.0871C160.068 41.6036 160.219 42.1965 160.219 42.8666C160.219 43.5363 160.068 44.1275 159.767 44.6404C159.47 45.1531 159.028 45.5535 158.442 45.8416C157.855 46.1297 157.129 46.2739 156.261 46.2739H152.871V45.314H156.231C156.874 45.314 157.408 45.2146 157.834 45.0165C158.263 44.8181 158.582 44.5355 158.791 44.1688C159.004 43.8022 159.11 43.3681 159.11 42.8666C159.11 42.3651 159.004 41.9272 158.791 41.5529C158.578 41.1751 158.257 40.8831 157.827 40.6774C157.402 40.4713 156.864 40.3684 156.213 40.3684H153.388V50.9216H152.262ZM157.701 45.7349L160.737 50.9216H159.435L156.43 45.7349H157.701Z" fill="white"/>
<path d="M162.215 40.3684V39.4255H171.159V40.3684H167.251V50.9216H166.124V40.3684H162.215Z" fill="white"/>
</g>
</g>
<defs>
<clipPath id="clip0_570_2607">
<rect width="196" height="51" fill="white"/>
</clipPath>
</defs>
</svg>
