<svg width="53" height="53" viewBox="0 0 53 53" fill="none" xmlns="http://www.w3.org/2000/svg">
<g clip-path="url(#clip0_570_2025)">
<path d="M1.13103 26.1828C1.12979 30.6358 2.30241 34.9839 4.53214 38.8163L0.917786 51.9106L14.4228 48.397C18.1582 50.4147 22.3433 51.4719 26.5963 51.4722H26.6075C40.6473 51.4722 52.076 40.1362 52.082 26.2027C52.0847 19.451 49.4372 13.1021 44.6271 8.32551C39.8177 3.54935 33.4215 0.917632 26.6064 0.914551C12.565 0.914551 1.13703 12.25 1.13123 26.1828" fill="url(#paint0_linear_570_2025)"/>
<path d="M0.221523 26.1746C0.220074 30.7879 1.43473 35.2914 3.74395 39.2611L0 52.8248L13.9893 49.1852C17.8438 51.2705 22.1836 52.37 26.5996 52.3716H26.611C41.1545 52.3716 52.9938 40.6278 53 26.1956C53.0025 19.2012 50.2597 12.6241 45.2777 7.67637C40.2951 2.72929 33.6701 0.00287597 26.611 0C12.065 0 0.22732 11.7422 0.221523 26.1746ZM8.55267 38.5774L8.03033 37.7547C5.83455 34.2904 4.67559 30.287 4.67725 26.1762C4.6818 14.1804 14.5208 4.42077 26.6193 4.42077C32.4782 4.42324 37.9844 6.6895 42.1259 10.8013C46.2671 14.9135 48.5459 20.3799 48.5445 26.1939C48.5391 38.1898 38.6999 47.9506 26.611 47.9506H26.6023C22.666 47.9486 18.8055 46.8997 15.4387 44.9175L14.6375 44.446L6.33598 46.6057L8.55267 38.5774Z" fill="url(#paint1_linear_570_2025)"/>
<path d="M20.0154 15.2319C19.5214 14.1425 19.0015 14.1205 18.5318 14.1014C18.1471 14.085 17.7074 14.0862 17.2681 14.0862C16.8283 14.0862 16.1139 14.2503 15.5099 14.9046C14.9054 15.5595 13.202 17.1421 13.202 20.361C13.202 23.5798 15.5648 26.6908 15.8942 27.1277C16.224 27.5638 20.4557 34.3807 27.1577 37.0032C32.7277 39.1825 33.8612 38.7491 35.0701 38.6398C36.2791 38.5309 38.9714 37.0576 39.5206 35.5298C40.0703 34.0023 40.0703 32.6929 39.9055 32.4193C39.7407 32.1467 39.3009 31.9829 38.6416 31.6559C37.9822 31.3289 34.7403 29.7459 34.1359 29.5275C33.5314 29.3093 33.0919 29.2004 32.6521 29.8556C32.2124 30.5096 30.9497 31.9829 30.5648 32.4193C30.1804 32.8566 29.7955 32.9111 29.1363 32.5838C28.4765 32.2555 26.353 31.5655 23.8336 29.3368C21.8735 27.6026 20.5501 25.4611 20.1655 24.806C19.7808 24.1519 20.1243 23.7973 20.4549 23.4713C20.7512 23.1782 21.1145 22.7073 21.4445 22.3254C21.7733 21.9434 21.883 21.6707 22.1029 21.2344C22.3229 20.7977 22.2128 20.4156 22.0482 20.0884C21.883 19.7611 20.6017 16.5254 20.0154 15.2319Z" fill="white"/>
</g>
<defs>
<linearGradient id="paint0_linear_570_2025" x1="2559.13" y1="5100.52" x2="2559.13" y2="0.914551" gradientUnits="userSpaceOnUse">
<stop stop-color="#1FAF38"/>
<stop offset="1" stop-color="#60D669"/>
</linearGradient>
<linearGradient id="paint1_linear_570_2025" x1="2650" y1="5282.48" x2="2650" y2="0" gradientUnits="userSpaceOnUse">
<stop stop-color="#F9F9F9"/>
<stop offset="1" stop-color="white"/>
</linearGradient>
<clipPath id="clip0_570_2025">
<rect width="53" height="53" fill="white"/>
</clipPath>
</defs>
</svg>
