<svg width="192" height="51" viewBox="0 0 122 32" fill="none" xmlns="http://www.w3.org/2000/svg">
<g clip-path="url(#clip0_561_96)">
<mask id="mask0_561_96" style="mask-type:luminance" maskUnits="userSpaceOnUse" x="0" y="0" width="122" height="32">
<path d="M122 0H0V32H122V0Z" fill="white"/>
</mask>
<g mask="url(#mask0_561_96)">
<path d="M25.4133 0.254255C23.016 0.308313 20.8522 1.33041 19.28 2.95335C19.136 3.10186 18.9971 3.25594 18.8634 3.41439C18.7261 3.57594 18.5955 3.74245 18.4705 3.91394C18.3259 4.11153 18.1893 4.3147 18.0605 4.52409C17.4035 5.59155 16.9571 6.80877 16.7804 8.1142C15.4669 7.89673 14.2165 7.34 13.1617 6.50431C12.7257 6.16008 11.9982 5.74938 11.0035 5.74938C9.04803 5.74938 7.45698 7.37728 7.45698 9.378C7.45698 11.3787 9.04803 13.0066 11.0035 13.0066C11.9951 13.0066 12.7196 12.6003 13.1526 12.2591C14.1455 11.4781 15.3114 10.9425 16.5369 10.7052C16.4756 10.9587 16.3972 11.2053 16.3025 11.4433C16.1865 11.7366 16.0462 12.0174 15.8841 12.2828C14.9361 13.838 13.2485 14.8731 11.3253 14.8731C8.47295 14.8731 6.13982 12.5965 5.96674 9.72284C5.76391 6.36016 8.58772 3.57842 11.864 3.91269C12.7123 3.99907 13.503 4.28799 14.1886 4.73101C14.8742 5.17463 15.4548 5.77174 15.8841 6.47573C16.1446 5.55801 16.5302 4.67882 17.0324 3.86237C17.2262 3.54797 17.4357 3.24413 17.661 2.95335C16.0444 1.28506 13.803 0.25177 11.3253 0.25177C6.43919 0.25177 2.47008 4.27122 2.40509 9.25496C2.3383 14.4021 6.4975 18.6185 11.5275 18.5043C13.925 18.4502 16.0887 17.4281 17.661 15.8051C17.8049 15.6566 17.944 15.5025 18.0776 15.3441C18.2148 15.1825 18.3454 15.016 18.4705 14.8445C18.615 14.6469 18.7516 14.4438 18.8803 14.2344C19.5375 13.1669 19.9838 11.9497 20.1604 10.6443C21.474 10.8617 22.7244 11.4185 23.7793 12.2542C24.2152 12.5984 24.9428 13.0091 25.9374 13.0091C27.8929 13.0091 29.484 11.3812 29.484 9.38048C29.484 7.37976 27.8929 5.75186 25.9374 5.75186C24.9457 5.75186 24.2214 6.15821 23.7884 6.49934C22.7954 7.28036 21.6295 7.81596 20.4041 8.05331C20.4654 7.79979 20.5437 7.55311 20.6384 7.31516C20.7544 7.02188 20.8946 6.74103 21.0569 6.47573C22.0048 4.92051 23.6924 3.88536 25.6156 3.88536C28.4679 3.88536 30.8012 6.16194 30.9742 9.03563C31.177 12.3983 28.3532 15.1801 25.077 14.8458C24.2287 14.7594 23.4379 14.4705 22.7523 14.0275C22.0667 13.5838 21.4862 12.9867 21.0569 12.2828C20.7963 13.2005 20.4106 14.0797 19.9084 14.8961C19.7147 15.2105 19.5053 15.5143 19.28 15.8051C20.8964 17.4734 23.138 18.5066 25.6156 18.5066C30.5017 18.5066 34.4708 14.4873 34.5358 9.5035C34.6027 4.35633 30.4434 0.139929 25.4133 0.254255ZM24.1959 7.04113C24.5468 6.76465 25.1346 6.43534 25.9374 6.43534C27.5243 6.43534 28.8159 7.7563 28.8159 9.38048C28.8159 11.0047 27.5243 12.3256 25.9374 12.3256C25.1304 12.3256 24.5408 11.9926 24.1879 11.7136C22.9996 10.7723 21.6343 10.1895 20.228 9.9633C19.7791 9.88998 19.3261 9.85393 18.8731 9.85393C18.7389 9.85393 18.6192 9.85393 18.4644 9.85393C18.3494 9.85393 18.0965 9.85393 18.034 9.85393C17.5737 9.85393 17.1181 9.91297 16.662 9.98815C15.272 10.2149 13.9232 10.7903 12.7451 11.7173C12.3941 11.9938 11.8063 12.3231 11.0035 12.3231C9.41665 12.3231 8.12498 11.0022 8.12498 9.378C8.12498 7.75381 9.41665 6.43286 11.0035 6.43286C11.8105 6.43286 12.4002 6.76588 12.753 7.04487C13.9414 7.9862 15.3066 8.569 16.713 8.79517C17.1618 8.8685 17.6018 8.92034 18.0548 8.92034C18.189 8.92034 18.3825 8.92034 18.4644 8.92034C18.5193 8.92034 18.8117 8.92034 18.8741 8.92034C19.3345 8.92034 19.8228 8.84551 20.279 8.77033C21.669 8.54353 23.0178 7.96818 24.1959 7.04113Z" fill="url(#paint0_linear_561_96)"/>
<path d="M38.1806 18.3389C37.9912 18.3389 37.8535 18.2868 37.733 18.1651C37.6124 18.0434 37.5607 17.8869 37.5607 17.713V1.109C37.5607 0.917754 37.6124 0.761276 37.733 0.656958C37.8535 0.535253 37.9912 0.483093 38.1806 0.483093H40.8143C41.0898 0.483093 41.2963 0.55264 41.4168 0.674345C41.5374 0.79605 41.6233 0.900368 41.6579 0.969914L47.7002 10.7932V1.109C47.7002 0.917754 47.7517 0.761276 47.8723 0.656958C47.9928 0.535253 48.1305 0.483093 48.3199 0.483093H51.2979C51.4873 0.483093 51.625 0.535253 51.7455 0.656958C51.866 0.778663 51.9178 0.935141 51.9178 1.109V17.713C51.9178 17.8869 51.866 18.026 51.7455 18.1651C51.625 18.2868 51.4873 18.3563 51.2979 18.3563H48.6469C48.3887 18.3563 48.1822 18.2868 48.0617 18.1477C47.9411 18.0086 47.855 17.9217 47.8206 17.8695L41.7783 8.42868V17.7304C41.7783 17.9217 41.7268 18.0781 41.6062 18.1825C41.4857 18.3042 41.348 18.3563 41.1586 18.3563H38.1806V18.3389Z" fill="black"/>
<path d="M55.9975 18.3389C55.8081 18.3389 55.6704 18.2868 55.5499 18.1651C55.4293 18.0434 55.3778 17.8869 55.3778 17.713V1.109C55.3778 0.917754 55.4293 0.761276 55.5499 0.656958C55.6704 0.535253 55.8081 0.483093 55.9975 0.483093H58.6314C58.9067 0.483093 59.1134 0.55264 59.2337 0.674345C59.3543 0.79605 59.4404 0.900368 59.4748 0.969914L65.5171 10.7932V1.109C65.5171 0.917754 65.5688 0.761276 65.6892 0.656958C65.8097 0.535253 65.9476 0.483093 66.1368 0.483093H69.115C69.3044 0.483093 69.442 0.535253 69.5626 0.656958C69.6829 0.778663 69.7347 0.935141 69.7347 1.109V17.713C69.7347 17.8869 69.6829 18.026 69.5626 18.1651C69.442 18.3042 69.3044 18.3563 69.115 18.3563H66.464C66.2058 18.3563 65.9991 18.2868 65.8785 18.1477C65.7582 18.0086 65.6721 17.9217 65.6376 17.8695L59.5954 8.42868V17.7304C59.5954 17.9217 59.5437 18.0781 59.4231 18.1825C59.3027 18.3042 59.1649 18.3563 58.9755 18.3563H55.9975V18.3389Z" fill="black"/>
<path d="M73.8145 18.3389C73.6252 18.3389 73.4875 18.2868 73.367 18.1651C73.2464 18.0434 73.1947 17.8869 73.1947 17.713V1.109C73.1947 0.917754 73.2464 0.761276 73.367 0.656958C73.4875 0.535253 73.6252 0.483093 73.8145 0.483093H85.3827C85.5721 0.483093 85.7097 0.535253 85.8303 0.656958C85.9508 0.778663 86.0023 0.935141 86.0023 1.109V3.50833C86.0023 3.69958 85.9508 3.85607 85.8303 3.96038C85.7097 4.08209 85.5721 4.13425 85.3827 4.13425H77.4813V7.57675H84.849C85.0384 7.57675 85.176 7.6463 85.2966 7.76799C85.4171 7.88971 85.4686 8.04619 85.4686 8.23744V10.4629C85.4686 10.6368 85.4171 10.7758 85.2966 10.9149C85.176 11.0366 85.0384 11.1062 84.849 11.1062H77.4813V14.653H85.5892C85.7785 14.653 85.9162 14.7052 86.0367 14.8269C86.1573 14.9486 86.209 15.1051 86.209 15.2789V17.6783C86.209 17.8695 86.1573 18.026 86.0367 18.1303C85.9162 18.252 85.7785 18.3042 85.5892 18.3042H73.8145V18.3389Z" fill="black"/>
<path d="M96.004 18.5997C94.4375 18.5997 93.0948 18.3389 91.9758 17.8C90.8569 17.2784 89.9962 16.496 89.3765 15.4702C88.7567 14.4444 88.4123 13.1752 88.3435 11.6625V7.12468C88.4123 5.64685 88.7567 4.39503 89.3765 3.35184C89.9962 2.32604 90.874 1.54365 92.0102 1.00467C93.1292 0.465691 94.4719 0.204895 96.004 0.204895C97.5361 0.204895 98.1042 0.343987 99.0338 0.622169C99.9634 0.900351 100.772 1.31763 101.461 1.8566C102.15 2.39558 102.7 3.03889 103.079 3.80389C103.475 4.56889 103.665 5.42083 103.682 6.37708C103.682 6.53355 103.647 6.65526 103.544 6.75957C103.441 6.8639 103.303 6.91606 103.165 6.91606H99.8257C99.619 6.91606 99.447 6.8639 99.3264 6.77697C99.2059 6.69003 99.1198 6.51617 99.0338 6.25537C98.81 5.35127 98.4313 4.74274 97.8976 4.41241C97.3812 4.08207 96.7442 3.9082 95.9696 3.9082C95.195 3.9082 94.3343 4.169 93.8178 4.69059C93.2841 5.21218 92.9915 6.0815 92.9571 7.28117C92.9054 8.67208 92.9054 10.1152 92.9571 11.5756C93.0086 12.7927 93.3013 13.6446 93.8178 14.1662C94.3514 14.6878 95.0571 14.9486 95.9696 14.9486C96.8819 14.9486 97.3812 14.7747 97.8976 14.4444C98.4313 14.0966 98.7927 13.4881 99.0165 12.6014C99.0853 12.3406 99.1715 12.1667 99.3091 12.0798C99.4297 11.9929 99.6019 11.9407 99.8257 11.9407H103.165C103.32 11.9407 103.441 11.9929 103.544 12.0972C103.647 12.2015 103.699 12.3232 103.682 12.4797C103.682 13.436 103.458 14.2879 103.079 15.0529C102.683 15.8179 102.15 16.4612 101.461 17.0002C100.772 17.5392 99.9634 17.939 99.0338 18.2172C98.1042 18.4954 97.1057 18.6345 96.004 18.6345V18.5997Z" fill="black"/>
<path d="M110.722 18.3389C110.533 18.3389 110.395 18.2868 110.275 18.1651C110.154 18.0434 110.103 17.8869 110.103 17.713V4.48196H105.696C105.506 4.48196 105.369 4.41243 105.248 4.29072C105.128 4.16901 105.076 4.01254 105.076 3.83867V1.109C105.076 0.917754 105.128 0.761276 105.248 0.656958C105.369 0.535253 105.506 0.483093 105.696 0.483093H119.037C119.226 0.483093 119.364 0.535253 119.485 0.656958C119.605 0.778663 119.657 0.935141 119.657 1.109V3.83867C119.657 4.01254 119.605 4.15163 119.485 4.29072C119.364 4.41243 119.226 4.48196 119.037 4.48196H114.63V17.713C114.63 17.9043 114.578 18.0608 114.458 18.1651C114.337 18.2868 114.2 18.3389 114.01 18.3389H110.722Z" fill="black"/>
<path d="M15.5229 25.3293V24.7376H21.0903V25.3293H18.6571V31.9509H17.9561V25.3293H15.5229Z" fill="#191919"/>
<path d="M22.6685 31.9509V24.7376H27.1224V25.3293H23.3697V28.0449H26.8863V28.6367H23.3697V31.3593H27.1975V31.9509H22.6685Z" fill="#191919"/>
<path d="M28.937 31.9509V24.7376H29.638V31.3593H33.2971V31.9509H28.937Z" fill="#191919"/>
<path d="M34.8754 31.9509V24.7376H39.3293V25.3293H35.5765V28.0449H39.093V28.6367H35.5765V31.3593H39.4042V31.9509H34.8754Z" fill="#191919"/>
<path d="M47.1572 26.9918H46.4523C46.3999 26.7452 46.305 26.5175 46.1676 26.3084C46.0324 26.0971 45.8626 25.9128 45.6577 25.7556C45.4527 25.5981 45.2203 25.476 44.9603 25.3892C44.7005 25.3022 44.4191 25.2588 44.1169 25.2588C43.632 25.2588 43.1895 25.3775 42.7896 25.6147C42.3923 25.8518 42.0736 26.2004 41.8336 26.6608C41.5962 27.1185 41.4775 27.6798 41.4775 28.3443C41.4775 29.0135 41.5962 29.577 41.8336 30.0349C42.0736 30.4927 42.3923 30.8403 42.7896 31.0775C43.1895 31.3122 43.632 31.4297 44.1169 31.4297C44.4191 31.4297 44.7005 31.3861 44.9603 31.2993C45.2203 31.2125 45.4527 31.0915 45.6577 30.9364C45.8626 30.7792 46.0324 30.5949 46.1676 30.3836C46.305 30.1723 46.3999 29.9433 46.4523 29.6967H47.1572C47.0948 30.0278 46.9773 30.3365 46.8049 30.6231C46.6348 30.9072 46.4174 31.156 46.1524 31.3697C45.8901 31.5834 45.5876 31.7501 45.2453 31.87C44.9028 31.9897 44.5267 32.0495 44.1169 32.0495C43.4719 32.0495 42.8996 31.8981 42.3998 31.5952C41.8999 31.2899 41.5075 30.8603 41.2225 30.306C40.9401 29.7519 40.7988 29.0979 40.7988 28.3443C40.7988 27.5906 40.9401 26.9366 41.2225 26.3825C41.5075 25.8282 41.8999 25.3997 42.3998 25.0968C42.8996 24.7917 43.4719 24.6391 44.1169 24.6391C44.5267 24.6391 44.9028 24.6988 45.2453 24.8186C45.5876 24.9361 45.8901 25.1027 46.1524 25.3188C46.4174 25.5325 46.6348 25.7813 46.8049 26.0655C46.9773 26.3496 47.0948 26.6584 47.1572 26.9918Z" fill="#191919"/>
<path d="M55.0987 28.3443C55.0987 29.0957 54.9561 29.7495 54.6712 30.306C54.3864 30.8603 53.994 31.2899 53.4941 31.5952C52.9967 31.8981 52.4244 32.0495 51.777 32.0495C51.1297 32.0495 50.5561 31.8981 50.0563 31.5952C49.5588 31.2899 49.1677 30.8603 48.8827 30.306C48.6003 29.7495 48.4592 29.0957 48.4592 28.3443C48.4592 27.5928 48.6003 26.9401 48.8827 26.386C49.1677 25.8295 49.5601 25.3997 50.0599 25.0968C50.5598 24.7917 51.1322 24.6391 51.777 24.6391C52.4244 24.6391 52.9967 24.7917 53.4941 25.0968C53.994 25.3997 54.3864 25.8295 54.6712 26.386C54.9561 26.9401 55.0987 27.5928 55.0987 28.3443ZM54.4162 28.3443C54.4162 27.6986 54.3013 27.1456 54.0714 26.6854C53.8414 26.2227 53.5278 25.8694 53.1303 25.6252C52.733 25.381 52.2818 25.2588 51.777 25.2588C51.2746 25.2588 50.8247 25.381 50.4274 25.6252C50.0299 25.8694 49.715 26.2216 49.4825 26.6817C49.2527 27.1421 49.1376 27.6962 49.1376 28.3443C49.1376 28.99 49.2527 29.543 49.4825 30.0031C49.7125 30.4634 50.0262 30.8167 50.4235 31.0633C50.8211 31.3076 51.2721 31.4297 51.777 31.4297C52.2818 31.4297 52.733 31.3076 53.1303 31.0633C53.5304 30.8191 53.8452 30.4669 54.0752 30.0066C54.3052 29.5441 54.4188 28.99 54.4162 28.3443Z" fill="#191919"/>
<path d="M56.7941 24.7376H57.6039L60.3895 31.021H60.4569L63.2425 24.7376H64.0522V31.9509H63.3923V26.1289H63.3324L60.7418 31.9509H60.1045L57.5139 26.1289H57.454V31.9509H56.7941V24.7376Z" fill="#191919"/>
<path d="M69.0627 31.9509V24.7376H73.5167V25.3293H69.7638V28.0449H73.2805V28.6367H69.7638V31.3593H73.5917V31.9509H69.0627Z" fill="#191919"/>
<path d="M75.4512 24.7376L77.577 27.8689H77.6256L79.7513 24.7376H80.5798L78.1092 28.3443L80.5798 31.9509H79.7513L77.6256 28.855H77.577L75.4512 31.9509H74.6226L77.1307 28.3443L74.6226 24.7376H75.4512Z" fill="#191919"/>
<path d="M81.9088 31.9509V24.7376H84.3869C84.9317 24.7376 85.3867 24.8362 85.7516 25.0335C86.1189 25.2283 86.3951 25.4937 86.5801 25.8295C86.7675 26.1653 86.8613 26.5433 86.8613 26.9637C86.8613 27.3839 86.7688 27.7631 86.5838 28.1013C86.399 28.4369 86.124 28.7034 85.7591 28.9008C85.3942 29.0957 84.9406 29.193 84.3982 29.193H82.4487V28.6014H84.3794C84.7818 28.6014 85.1154 28.5309 85.3804 28.3901C85.6453 28.2468 85.8429 28.0518 85.9727 27.8054C86.1052 27.5588 86.1715 27.2781 86.1715 26.9637C86.1715 26.649 86.1052 26.3684 85.9727 26.1217C85.8429 25.8753 85.644 25.6815 85.3767 25.5406C85.1118 25.3997 84.7756 25.3293 84.3681 25.3293H82.6099V31.9509H81.9088Z" fill="#191919"/>
<path d="M88.507 31.9509V24.7376H92.9609V25.3293H89.2082V28.0449H92.7247V28.6367H89.2082V31.3593H93.0359V31.9509H88.507Z" fill="#191919"/>
<path d="M94.7754 31.9509V24.7376H97.2534C97.7984 24.7376 98.2533 24.8303 98.6182 25.0159C98.9855 25.1991 99.2617 25.4538 99.4467 25.7802C99.6341 26.1043 99.7279 26.4763 99.7279 26.8967C99.7279 27.317 99.6341 27.6879 99.4467 28.0097C99.2617 28.3314 98.9868 28.5826 98.6219 28.7634C98.2569 28.9442 97.8046 29.0347 97.2647 29.0347H95.1541V28.4324H97.246C97.6459 28.4324 97.9784 28.37 98.2433 28.2457C98.5106 28.1212 98.7094 27.9439 98.8393 27.7138C98.9718 27.4838 99.0381 27.2114 99.0381 26.8967C99.0381 26.5821 98.9718 26.3073 98.8393 26.0724C98.7069 25.8354 98.507 25.6522 98.2395 25.5231C97.9745 25.3938 97.6397 25.3293 97.2347 25.3293H95.4764V31.9509H94.7754ZM98.1608 28.6964L100.05 31.9509H99.2404L97.3698 28.6964H98.1608Z" fill="#191919"/>
<path d="M100.971 25.3293V24.7376H106.538V25.3293H104.105V31.9509H103.404V25.3293H100.971Z" fill="#191919"/>
</g>
</g>
<defs>
<linearGradient id="paint0_linear_561_96" x1="8.59927" y1="19.4791" x2="28.7937" y2="-0.25812" gradientUnits="userSpaceOnUse">
<stop stop-color="#0190F9"/>
<stop offset="0.09" stop-color="#008AEF"/>
<stop offset="0.23" stop-color="#007CD6"/>
<stop offset="0.41" stop-color="#0064AD"/>
<stop offset="0.63" stop-color="#004374"/>
<stop offset="0.86" stop-color="#00192C"/>
<stop offset="1"/>
</linearGradient>
<clipPath id="clip0_561_96">
<rect width="122" height="32" fill="white"/>
</clipPath>
</defs>
</svg>
