<svg width="66" height="66" viewBox="0 0 66 66" fill="none" xmlns="http://www.w3.org/2000/svg">
<g filter="url(#filter0_d_56_1707)">
<circle cx="33.0001" cy="19.9999" r="14.9999" fill="#1A202C"/>
</g>
<path d="M33 5C24.7156 5 18 11.7156 18 20C18 28.2844 24.7156 35 33 35C41.2844 35 48 28.2844 48 20C48 11.7156 41.2844 5 33 5ZM39.1016 17.2875C39.1078 17.4156 39.1094 17.5437 39.1094 17.6687C39.1094 21.575 36.1391 26.0766 30.7047 26.0766C29.0989 26.0792 27.5265 25.618 26.1766 24.7484C26.4062 24.7766 26.6422 24.7875 26.8812 24.7875C28.2656 24.7875 29.5391 24.3172 30.55 23.5234C29.9339 23.5113 29.337 23.3073 28.8424 22.9399C28.3477 22.5724 27.9801 22.0598 27.7906 21.4734C28.2331 21.5576 28.6888 21.5399 29.1234 21.4219C28.4548 21.2867 27.8534 20.9243 27.4214 20.3963C26.9894 19.8684 26.7533 19.2072 26.7531 18.525V18.4891C27.1516 18.7094 27.6078 18.8438 28.0922 18.8594C27.4653 18.4421 27.0215 17.801 26.8516 17.0674C26.6817 16.3337 26.7985 15.5629 27.1781 14.9125C27.9202 15.825 28.8457 16.5715 29.8946 17.1036C30.9436 17.6357 32.0925 17.9417 33.2672 18.0016C33.1178 17.3677 33.1821 16.7022 33.45 16.1086C33.7179 15.515 34.1744 15.0265 34.7485 14.7192C35.3227 14.4118 35.9823 14.3027 36.6248 14.4089C37.2674 14.515 37.8568 14.8305 38.3016 15.3062C38.9628 15.1754 39.5968 14.9329 40.1766 14.5891C39.9562 15.2736 39.4948 15.855 38.8781 16.225C39.4638 16.1545 40.0357 15.997 40.575 15.7578C40.1789 16.3514 39.6799 16.8694 39.1016 17.2875Z" fill="#8D6AF7"/>
<defs>
<filter id="filter0_d_56_1707" x="0.00012207" y="0" width="65.9999" height="66" filterUnits="userSpaceOnUse" color-interpolation-filters="sRGB">
<feFlood flood-opacity="0" result="BackgroundImageFix"/>
<feColorMatrix in="SourceAlpha" type="matrix" values="0 0 0 0 0 0 0 0 0 0 0 0 0 0 0 0 0 0 127 0" result="hardAlpha"/>
<feOffset dy="13"/>
<feGaussianBlur stdDeviation="9"/>
<feColorMatrix type="matrix" values="0 0 0 0 0.0658854 0 0 0 0 0.0730469 0 0 0 0 0.1375 0 0 0 0.08 0"/>
<feBlend mode="normal" in2="BackgroundImageFix" result="effect1_dropShadow_56_1707"/>
<feBlend mode="normal" in="SourceGraphic" in2="effect1_dropShadow_56_1707" result="shape"/>
</filter>
</defs>
</svg>
