<svg width="97" height="96" viewBox="0 0 97 96" fill="none" xmlns="http://www.w3.org/2000/svg">
<mask id="mask0_398_964" style="mask-type:alpha" maskUnits="userSpaceOnUse" x="0" y="0" width="97" height="96">
<rect x="0.5" width="96" height="96" fill="#D9D9D9"/>
</mask>
<g mask="url(#mask0_398_964)">
<path d="M93.9951 47.0344C93.9951 71.6515 74.2796 91.5972 49.972 91.5972C25.6644 91.5972 5.94894 71.6515 5.94894 47.0344C5.94894 22.4174 25.6644 2.47168 49.972 2.47168C74.2796 2.47168 93.9951 22.4174 93.9951 47.0344Z" fill="url(#paint0_linear_398_964)" stroke="url(#paint1_linear_398_964)"/>
<path d="M93.02 45.9148C94.751 45.9148 96.1655 44.5097 96.0466 42.7828C95.4651 34.3329 92.5394 26.1963 87.5763 19.3237C82.631 12.4756 75.8901 7.1974 68.1468 4.06704C66.5164 3.40788 64.7177 4.34496 64.1897 6.02247C63.6667 7.68352 64.5888 9.44289 66.1962 10.1127C72.692 12.8197 78.3464 17.2944 82.5155 23.0676C86.6936 28.8532 89.1912 35.6813 89.7604 42.7838C89.8987 44.5093 91.289 45.9148 93.02 45.9148Z" fill="url(#paint2_linear_398_964)"/>
<path d="M6.92392 48.1543C5.19291 48.1543 3.77842 49.5594 3.89727 51.2863C4.47885 59.7362 7.40449 67.8728 12.3676 74.7454C17.313 81.5934 24.0538 86.8717 31.7971 90.0021C33.4275 90.6612 35.2262 89.7241 35.7543 88.0466C36.2772 86.3856 35.3551 84.6262 33.7477 83.9563C27.2519 81.2493 21.5976 76.7747 17.4284 71.0015C13.2503 65.2159 10.7527 58.3878 10.1835 51.2853C10.0452 49.5598 8.65494 48.1543 6.92392 48.1543Z" fill="url(#paint3_linear_398_964)"/>
<g filter="url(#filter0_d_398_964)">
<path d="M37.2782 26.8296C36.1793 26.8296 35.1253 27.2772 34.3483 28.0739C33.5712 28.8706 33.1346 29.9512 33.1346 31.078C33.1346 32.2047 33.5712 33.2853 34.3483 34.082C35.1253 34.8787 36.1793 35.3263 37.2782 35.3263C38.3772 35.3263 39.4311 34.8787 40.2082 34.082C40.9853 33.2853 41.4218 32.2047 41.4218 31.078C41.4218 29.9512 40.9853 28.8706 40.2082 28.0739C39.4311 27.2772 38.3772 26.8296 37.2782 26.8296ZM33.3784 38.825C33.3137 38.825 33.2517 38.8513 33.206 38.8982C33.1603 38.9451 33.1346 39.0086 33.1346 39.0749V65.065C33.1346 65.2029 33.2438 65.3149 33.3784 65.3149H41.1781C41.2427 65.3149 41.3047 65.2885 41.3504 65.2417C41.3961 65.1948 41.4218 65.1312 41.4218 65.065V39.0749C41.4218 39.0086 41.3961 38.9451 41.3504 38.8982C41.3047 38.8513 41.2427 38.825 41.1781 38.825H33.3784ZM46.0529 38.825C45.9882 38.825 45.9262 38.8513 45.8805 38.8982C45.8348 38.9451 45.8091 39.0086 45.8091 39.0749V65.065C45.8091 65.2029 45.9183 65.3149 46.0529 65.3149H53.8525C53.9172 65.3149 53.9792 65.2885 54.0249 65.2417C54.0706 65.1948 54.0963 65.1312 54.0963 65.065V51.0703C54.0963 50.0761 54.4815 49.1227 55.1671 48.4197C55.8528 47.7167 56.7827 47.3217 57.7524 47.3217C58.722 47.3217 59.652 47.7167 60.3376 48.4197C61.0233 49.1227 61.4085 50.0761 61.4085 51.0703V65.065C61.4085 65.2029 61.5177 65.3149 61.6522 65.3149H69.4519C69.5166 65.3149 69.5785 65.2885 69.6243 65.2417C69.67 65.1948 69.6956 65.1312 69.6956 65.065V47.8316C69.6956 42.9794 65.5813 39.1849 60.8723 39.6227C59.4154 39.7597 57.9884 40.1294 56.6429 40.7183L54.0963 41.8378V39.0749C54.0963 39.0086 54.0706 38.9451 54.0249 38.8982C53.9792 38.8513 53.9172 38.825 53.8525 38.825H46.0529Z" fill="url(#paint4_linear_398_964)"/>
</g>
</g>
<defs>
<filter id="filter0_d_398_964" x="19.0346" y="16.7296" width="64.761" height="66.6854" filterUnits="userSpaceOnUse" color-interpolation-filters="sRGB">
<feFlood flood-opacity="0" result="BackgroundImageFix"/>
<feColorMatrix in="SourceAlpha" type="matrix" values="0 0 0 0 0 0 0 0 0 0 0 0 0 0 0 0 0 0 127 0" result="hardAlpha"/>
<feOffset dy="4"/>
<feGaussianBlur stdDeviation="7.05"/>
<feComposite in2="hardAlpha" operator="out"/>
<feColorMatrix type="matrix" values="0 0 0 0 0.802081 0 0 0 0 0.129115 0 0 0 0 0.8375 0 0 0 0.54 0"/>
<feBlend mode="normal" in2="BackgroundImageFix" result="effect1_dropShadow_398_964"/>
<feBlend mode="normal" in="SourceGraphic" in2="effect1_dropShadow_398_964" result="shape"/>
</filter>
<linearGradient id="paint0_linear_398_964" x1="51.2806" y1="47.1725" x2="51.2806" y2="120.621" gradientUnits="userSpaceOnUse">
<stop stop-color="#261858"/>
<stop offset="1" stop-color="#630D6D"/>
</linearGradient>
<linearGradient id="paint1_linear_398_964" x1="49.972" y1="1.97168" x2="49.972" y2="92.0972" gradientUnits="userSpaceOnUse">
<stop stop-color="#F188FF"/>
<stop offset="1" stop-color="#E014FB"/>
</linearGradient>
<linearGradient id="paint2_linear_398_964" x1="51.6312" y1="0.852051" x2="51.6312" y2="90.9776" gradientUnits="userSpaceOnUse">
<stop stop-color="#F188FF"/>
<stop offset="1" stop-color="#E014FB"/>
</linearGradient>
<linearGradient id="paint3_linear_398_964" x1="48.3127" y1="93.217" x2="48.3127" y2="3.09153" gradientUnits="userSpaceOnUse">
<stop stop-color="#F188FF"/>
<stop offset="1" stop-color="#E014FB"/>
</linearGradient>
<linearGradient id="paint4_linear_398_964" x1="51.4151" y1="26.8296" x2="51.4151" y2="65.3149" gradientUnits="userSpaceOnUse">
<stop stop-color="#F188FF"/>
<stop offset="1" stop-color="#E014FB"/>
</linearGradient>
</defs>
</svg>
